<svg width="16" height="16" viewBox="0 0 16 16" fill="none" xmlns="http://www.w3.org/2000/svg">
<path fill-rule="evenodd" clip-rule="evenodd" d="M16 2.75C16 1.7835 15.2165 1 14.25 1H1.75C0.783502 1 0 1.7835 0 2.75V5.25C0 6.2165 0.7835 7 1.75 7H14.25C15.2165 7 16 6.2165 16 5.25V2.75ZM14.25 2.5C14.3881 2.5 14.5 2.61193 14.5 2.75V5.25C14.5 5.38807 14.3881 5.5 14.25 5.5H1.75C1.61193 5.5 1.5 5.38807 1.5 5.25L1.5 2.75C1.5 2.61193 1.61193 2.5 1.75 2.5H14.25Z" fill="#24292E"/>
<path fill-rule="evenodd" clip-rule="evenodd" d="M16 10.75C16 9.7835 15.2165 9 14.25 9H1.75C0.783502 9 0 9.7835 0 10.75V13.25C0 14.2165 0.7835 15 1.75 15H14.25C15.2165 15 16 14.2165 16 13.25V10.75ZM14.25 10.5C14.3881 10.5 14.5 10.6119 14.5 10.75V13.25C14.5 13.3881 14.3881 13.5 14.25 13.5H1.75C1.61193 13.5 1.5 13.3881 1.5 13.25L1.5 10.75C1.5 10.6119 1.61193 10.5 1.75 10.5H14.25Z" fill="#24292E"/>
</svg>
