<svg width="16" height="16" viewBox="0 0 16 16" fill="none" xmlns="http://www.w3.org/2000/svg">
<path fill-rule="evenodd" clip-rule="evenodd" d="M3.72001 3.72003C3.86063 3.57958 4.05126 3.50069 4.25001 3.50069C4.44876 3.50069 4.63938 3.57958 4.78001 3.72003L8.00001 6.94003L11.22 3.72003C11.2887 3.64634 11.3715 3.58724 11.4635 3.54625C11.5555 3.50526 11.6548 3.48322 11.7555 3.48144C11.8562 3.47966 11.9562 3.49819 12.0496 3.53591C12.143 3.57363 12.2278 3.62977 12.299 3.70099C12.3703 3.77221 12.4264 3.85705 12.4641 3.95043C12.5018 4.04382 12.5204 4.14385 12.5186 4.24455C12.5168 4.34526 12.4948 4.44457 12.4538 4.53657C12.4128 4.62857 12.3537 4.71137 12.28 4.78003L9.06001 8.00003L12.28 11.22C12.3537 11.2887 12.4128 11.3715 12.4538 11.4635C12.4948 11.5555 12.5168 11.6548 12.5186 11.7555C12.5204 11.8562 12.5018 11.9562 12.4641 12.0496C12.4264 12.143 12.3703 12.2278 12.299 12.299C12.2278 12.3703 12.143 12.4264 12.0496 12.4641C11.9562 12.5018 11.8562 12.5204 11.7555 12.5186C11.6548 12.5168 11.5555 12.4948 11.4635 12.4538C11.3715 12.4128 11.2887 12.3537 11.22 12.28L8.00001 9.06003L4.78001 12.28C4.63783 12.4125 4.44978 12.4846 4.25548 12.4812C4.06118 12.4777 3.8758 12.399 3.73838 12.2616C3.60097 12.1242 3.52226 11.9388 3.51883 11.7445C3.5154 11.5502 3.58753 11.3622 3.72001 11.22L6.94001 8.00003L3.72001 4.78003C3.57956 4.63941 3.50067 4.44878 3.50067 4.25003C3.50067 4.05128 3.57956 3.86066 3.72001 3.72003Z" fill="#24292E"/>
</svg>
