<svg width="16" height="16" viewBox="0 0 16 16" fill="none" xmlns="http://www.w3.org/2000/svg">
<path fill-rule="evenodd" clip-rule="evenodd" d="M7 2.75C7 1.7835 6.2165 1 5.25 1L2.25 1C1.2835 1 0.5 1.7835 0.5 2.75V5.25C0.5 6.2165 1.2835 7 2.25 7H5.25C6.2165 7 7 6.2165 7 5.25V2.75ZM5.25 2.5C5.38807 2.5 5.5 2.61193 5.5 2.75V5.25C5.5 5.38807 5.38807 5.5 5.25 5.5H2.25C2.11193 5.5 2 5.38807 2 5.25L2 2.75C2 2.61193 2.11193 2.5 2.25 2.5H5.25Z" fill="#24292E"/>
<path fill-rule="evenodd" clip-rule="evenodd" d="M7 10.75C7 9.7835 6.2165 9 5.25 9H2.25C1.2835 9 0.5 9.7835 0.5 10.75V13.25C0.5 14.2165 1.2835 15 2.25 15H5.25C6.2165 15 7 14.2165 7 13.25V10.75ZM5.25 10.5C5.38807 10.5 5.5 10.6119 5.5 10.75V13.25C5.5 13.3881 5.38807 13.5 5.25 13.5H2.25C2.11193 13.5 2 13.3881 2 13.25L2 10.75C2 10.6119 2.11193 10.5 2.25 10.5H5.25Z" fill="#24292E"/>
<path fill-rule="evenodd" clip-rule="evenodd" d="M15.5 2.75C15.5 1.7835 14.7165 1 13.75 1L10.75 1C9.7835 1 9 1.7835 9 2.75V5.25C9 6.2165 9.7835 7 10.75 7H13.75C14.7165 7 15.5 6.2165 15.5 5.25V2.75ZM13.75 2.5C13.8881 2.5 14 2.61193 14 2.75V5.25C14 5.38807 13.8881 5.5 13.75 5.5H10.75C10.6119 5.5 10.5 5.38807 10.5 5.25L10.5 2.75C10.5 2.61193 10.6119 2.5 10.75 2.5H13.75Z" fill="#24292E"/>
<path fill-rule="evenodd" clip-rule="evenodd" d="M15.5 10.75C15.5 9.7835 14.7165 9 13.75 9H10.75C9.7835 9 9 9.7835 9 10.75V13.25C9 14.2165 9.7835 15 10.75 15H13.75C14.7165 15 15.5 14.2165 15.5 13.25V10.75ZM13.75 10.5C13.8881 10.5 14 10.6119 14 10.75V13.25C14 13.3881 13.8881 13.5 13.75 13.5H10.75C10.6119 13.5 10.5 13.3881 10.5 13.25L10.5 10.75C10.5 10.6119 10.6119 10.5 10.75 10.5H13.75Z" fill="#24292E"/>
</svg>
