<svg width="16" height="16" viewBox="0 0 16 16" fill="none" xmlns="http://www.w3.org/2000/svg">
<path fill-rule="evenodd" clip-rule="evenodd" d="M7.775 3.27506C7.64252 3.41723 7.57039 3.60528 7.57382 3.79958C7.57725 3.99388 7.65596 4.17926 7.79337 4.31668C7.93079 4.45409 8.11617 4.5328 8.31047 4.53623C8.50477 4.53966 8.69282 4.46754 8.835 4.33506L10.085 3.08506C10.2708 2.89924 10.4914 2.75183 10.7342 2.65127C10.977 2.5507 11.2372 2.49894 11.5 2.49894C11.7628 2.49894 12.023 2.5507 12.2658 2.65127C12.5086 2.75183 12.7292 2.89924 12.915 3.08506C13.1008 3.27088 13.2482 3.49148 13.3488 3.73426C13.4493 3.97705 13.5011 4.23727 13.5011 4.50006C13.5011 4.76285 13.4493 5.02306 13.3488 5.26585C13.2482 5.50863 13.1008 5.72923 12.915 5.91506L10.415 8.41506C10.2292 8.60101 10.0087 8.74853 9.76588 8.84917C9.52308 8.94982 9.26283 9.00163 9 9.00163C8.73716 9.00163 8.47691 8.94982 8.23411 8.84917C7.99132 8.74853 7.77074 8.60101 7.585 8.41506C7.44282 8.28258 7.25477 8.21045 7.06047 8.21388C6.86617 8.21731 6.68079 8.29602 6.54337 8.43343C6.40596 8.57085 6.32725 8.75623 6.32382 8.95053C6.32039 9.14483 6.39252 9.33288 6.525 9.47506C6.85001 9.8001 7.23586 10.058 7.66052 10.2339C8.08518 10.4098 8.54034 10.5003 9 10.5003C9.45965 10.5003 9.91481 10.4098 10.3395 10.2339C10.7641 10.058 11.15 9.8001 11.475 9.47506L13.975 6.97506C14.6314 6.31864 15.0002 5.42836 15.0002 4.50006C15.0002 3.57175 14.6314 2.68147 13.975 2.02506C13.3186 1.36864 12.4283 0.999878 11.5 0.999878C10.5717 0.999878 9.68141 1.36864 9.02499 2.02506L7.775 3.27506ZM3.085 12.9151C2.89904 12.7293 2.75152 12.5088 2.65088 12.266C2.55023 12.0232 2.49842 11.7629 2.49842 11.5001C2.49842 11.2373 2.55023 10.977 2.65088 10.7342C2.75152 10.4914 2.89904 10.2708 3.085 10.0851L5.585 7.58506C5.77074 7.3991 5.99132 7.25158 6.23411 7.15094C6.47691 7.05029 6.73716 6.99848 7 6.99848C7.26283 6.99848 7.52308 7.05029 7.76588 7.15094C8.00867 7.25158 8.22925 7.3991 8.415 7.58506C8.55717 7.71754 8.74522 7.78966 8.93952 7.78623C9.13382 7.7828 9.3192 7.70409 9.45662 7.56668C9.59403 7.42926 9.67274 7.24388 9.67617 7.04958C9.6796 6.85528 9.60748 6.66723 9.475 6.52506C9.14999 6.20001 8.76413 5.94217 8.33947 5.76626C7.91481 5.59035 7.45965 5.4998 7 5.4998C6.54034 5.4998 6.08518 5.59035 5.66052 5.76626C5.23586 5.94217 4.85001 6.20001 4.525 6.52506L2.025 9.02505C1.36858 9.68147 0.999817 10.5718 0.999817 11.5001C0.999817 12.4284 1.36858 13.3187 2.025 13.9751C2.68141 14.6315 3.57169 15.0003 4.5 15.0003C5.4283 15.0003 6.31858 14.6315 6.975 13.9751L8.225 12.7251C8.35748 12.5829 8.4296 12.3949 8.42617 12.2006C8.42274 12.0063 8.34403 11.8209 8.20662 11.6835C8.0692 11.5461 7.88382 11.4673 7.68952 11.4639C7.49522 11.4605 7.30717 11.5326 7.165 11.6651L5.915 12.9151C5.72925 13.101 5.50867 13.2486 5.26588 13.3492C5.02308 13.4499 4.76283 13.5017 4.5 13.5017C4.23716 13.5017 3.97691 13.4499 3.73411 13.3492C3.49132 13.2486 3.27074 13.101 3.085 12.9151Z" fill="#24292E"/>
</svg>
